<svg width="10" height="11" viewBox="0 0 10 11" fill="none" xmlns="http://www.w3.org/2000/svg">
<path fill-rule="evenodd" clip-rule="evenodd" d="M9.77297 0.727011C10.0659 1.01989 10.0659 1.49478 9.77297 1.78767L6.06066 5.49998L9.77297 9.21229C10.0659 9.50518 10.0659 9.98007 9.77297 10.273C9.48009 10.5658 9.00519 10.5658 8.71231 10.273L5 6.56064L1.28769 10.273C0.994806 10.5658 0.519913 10.5658 0.227029 10.273C-0.0658542 9.98007 -0.0658542 9.50518 0.227029 9.21229L3.93934 5.49998L0.227029 1.78767C-0.0658614 1.49478 -0.0658542 1.01989 0.227029 0.727011C0.519913 0.434128 0.994799 0.434121 1.28769 0.727011L5 4.43932L8.71231 0.727011C9.0052 0.434121 9.48009 0.434128 9.77297 0.727011Z" fill="white"/>
</svg>
