<svg width="19" height="18" viewBox="0 0 19 18" fill="none" xmlns="http://www.w3.org/2000/svg">
<path fill-rule="evenodd" clip-rule="evenodd" d="M1.25002 1.29166H1.2501H1.25012C1.48736 1.29167 1.56973 1.29217 1.63987 1.29791C2.34894 1.35594 2.9641 1.81029 3.22807 2.47096C3.25419 2.53631 3.2789 2.6149 3.34869 2.84172L4.98332 8.15424L4.99434 8.19007H4.99435C5.24667 9.01016 5.45182 9.67691 5.68002 10.1966C5.9181 10.7387 6.2057 11.1807 6.65657 11.5137C7.10745 11.8467 7.61458 11.9917 8.20272 12.0597C8.76646 12.1251 9.46412 12.1251 10.3221 12.1251H10.3595H12.1132H12.1509C13.0149 12.1251 13.7173 12.1251 14.2845 12.0591C14.8763 11.9902 15.3863 11.8438 15.8387 11.5072C16.2911 11.1706 16.5779 10.7242 16.8139 10.1772C17.0401 9.65282 17.2419 8.98007 17.4901 8.15249L17.501 8.11641L17.6447 7.63749L17.6591 7.58932V7.58924C17.9416 6.64777 18.1735 5.8749 18.265 5.25446C18.3605 4.60817 18.3256 3.99457 17.9319 3.46541C17.5382 2.93624 16.9605 2.72657 16.314 2.63223C15.6935 2.54166 14.8865 2.54168 13.9035 2.54171H13.8533H4.58337C4.57699 2.54171 4.57063 2.54181 4.5643 2.54199L4.54342 2.47411L4.53538 2.44801V2.448C4.47665 2.25706 4.43637 2.12607 4.38885 2.00715C3.94888 0.906041 2.92362 0.148799 1.74182 0.0520745C1.61418 0.0416328 1.47713 0.0416411 1.27736 0.0416578H1.25006L1.25004 0.666658L1.24997 0.0416578L0.833297 0.0417078C0.48812 0.0417494 0.208332 0.321608 0.208374 0.666783C0.208417 1.01197 0.488272 1.29175 0.833449 1.29171L1.25002 1.29166ZM6.17805 7.78666L4.94883 3.79171H13.8533C14.899 3.79171 15.614 3.7933 16.1335 3.86913C16.6379 3.94273 16.823 4.06896 16.929 4.21157C17.0351 4.35419 17.1029 4.56775 17.0285 5.07194C16.9518 5.59142 16.7479 6.27657 16.4474 7.27827L16.3037 7.75716C16.042 8.62949 15.8602 9.23224 15.6661 9.68207C15.4785 10.1168 15.3045 10.3467 15.0925 10.5043C14.8806 10.662 14.6105 10.7627 14.1401 10.8174C13.6535 10.8741 13.024 10.8751 12.1132 10.8751H10.3595C9.45504 10.8751 8.83004 10.8741 8.34654 10.8181C7.8793 10.7639 7.61045 10.6643 7.3992 10.5082C7.18796 10.3522 7.01365 10.1246 6.82451 9.69391C6.6288 9.24832 6.44405 8.65116 6.17805 7.78666ZM8.33337 14.625C7.75807 14.625 7.29171 15.0913 7.29171 15.6667C7.29171 16.242 7.75807 16.7083 8.33337 16.7083C8.90871 16.7083 9.37504 16.242 9.37504 15.6667C9.37504 15.0913 8.90871 14.625 8.33337 14.625ZM6.04171 15.6667C6.04171 14.401 7.06772 13.375 8.33337 13.375C9.59904 13.375 10.625 14.401 10.625 15.6667C10.625 16.9323 9.59904 17.9583 8.33337 17.9583C7.06772 17.9583 6.04171 16.9323 6.04171 15.6667ZM15 14.625C14.4247 14.625 13.9584 15.0913 13.9584 15.6667C13.9584 16.242 14.4247 16.7083 15 16.7083C15.5754 16.7083 16.0417 16.242 16.0417 15.6667C16.0417 15.0913 15.5754 14.625 15 14.625ZM12.7084 15.6667C12.7084 14.401 13.7344 13.375 15 13.375C16.2657 13.375 17.2917 14.401 17.2917 15.6667C17.2917 16.9323 16.2657 17.9583 15 17.9583C13.7344 17.9583 12.7084 16.9323 12.7084 15.6667Z" fill="white"/>
</svg>
