<svg width="70" height="69" viewBox="0 0 70 69" fill="none" xmlns="http://www.w3.org/2000/svg">
<path fill-rule="evenodd" clip-rule="evenodd" d="M26.7782 4.22549C27.6533 3.0587 27.4168 1.40343 26.25 0.528324C25.0832 -0.346778 23.428 -0.1103 22.5529 1.05649L12.0423 15.0705C10.0127 15.5677 8.22538 16.3364 6.64754 17.5492C4.70871 19.0394 3.12026 20.9366 1.99407 23.1072C0.569637 25.8526 0.290236 28.9075 0.539284 32.5071C0.783474 36.0364 1.569 40.4353 2.56502 46.0127L2.59315 46.1705L2.61628 46.3001C3.33565 50.3286 3.90797 53.5338 4.61378 56.0828C5.33934 58.7032 6.2631 60.8606 7.815 62.7049C9.06918 64.1954 10.5741 65.4553 12.2618 66.4278C14.3503 67.6313 16.6364 68.1616 19.3435 68.4151C21.977 68.6619 25.2327 68.6619 29.3248 68.6619H29.3252H29.4569H41.0009H41.1325H41.1329C45.2251 68.6619 48.4808 68.6619 51.1142 68.4151C53.8212 68.1616 56.1075 67.6313 58.1959 66.4278C59.8835 65.4553 61.3885 64.1954 62.6427 62.7049C64.1948 60.8606 65.1184 58.7032 65.8441 56.0828C66.5497 53.5338 67.1222 50.3286 67.8416 46.3001L67.8645 46.1705L67.8927 46.0127V46.0124C68.8888 40.4349 69.6743 36.0364 69.9184 32.5071C70.1676 28.9075 69.8881 25.8526 68.4638 23.1072C67.3374 20.9366 65.749 19.0394 63.8103 17.5492C62.2325 16.3364 60.4452 15.5677 58.4156 15.0705L47.9047 1.05649C47.0297 -0.1103 45.3744 -0.346778 44.2075 0.528324C43.041 1.40343 42.8044 3.0587 43.6794 4.22549L51.1646 14.2053C48.3353 14.0846 45.0269 14.0846 41.1607 14.0846H41.0009H29.4569H29.297C25.431 14.0846 22.1225 14.0846 19.2934 14.2053L26.7782 4.22549ZM9.86622 21.7368C11.2097 20.7041 13.0501 20.0574 16.2129 19.7157C19.4131 19.3699 23.5958 19.3663 29.4569 19.3663H41.0009C46.8621 19.3663 51.0448 19.3699 54.2448 19.7157C57.4075 20.0574 59.248 20.7041 60.5916 21.7368C61.918 22.7564 63.005 24.0545 63.7754 25.5396C64.5557 27.0437 64.8691 28.9691 64.6494 32.1427C64.4272 35.354 63.6955 39.4723 62.6652 45.242C61.9173 49.4293 61.386 52.3905 60.754 54.6733C60.1339 56.9123 59.4751 58.2658 58.6015 59.3042C57.7434 60.3243 56.7135 61.1863 55.5589 61.8518C54.3829 62.5296 52.9346 62.9398 50.6216 63.1567C48.2632 63.3774 45.2547 63.3803 41.0009 63.3803H29.4569C25.2032 63.3803 22.1946 63.3774 19.8361 63.1567C17.5232 62.9398 16.075 62.5296 14.899 61.8518C13.7442 61.1863 12.7145 60.3243 11.8564 59.3042C10.9825 58.2658 10.3239 56.9123 9.70393 54.6733C9.07182 52.3905 8.54031 49.4293 7.79257 45.242C6.76225 39.4723 6.03053 35.354 5.80835 32.1427C5.58881 28.9691 5.90191 27.0437 6.68229 25.5396C7.45282 24.0545 8.53968 22.7564 9.86622 21.7368Z" fill="#AFB1BD"/>
</svg>
