<svg width="14" height="14" viewBox="0 0 14 14" fill="none" xmlns="http://www.w3.org/2000/svg">
<path d="M7 0.666626C7.55227 0.666626 8 1.11435 8 1.66663V5.99996H12.3333C12.8856 5.99996 13.3333 6.44769 13.3333 6.99996C13.3333 7.55223 12.8856 7.99996 12.3333 7.99996H8V12.3333C8 12.8856 7.55227 13.3333 7 13.3333C6.44773 13.3333 6 12.8856 6 12.3333V7.99996H1.66663C1.11435 7.99996 0.666626 7.55223 0.666626 6.99996C0.666626 6.44769 1.11435 5.99996 1.66663 5.99996H6V1.66663C6 1.11435 6.44773 0.666626 7 0.666626Z" fill="white"/>
</svg>
