<svg width="48" height="48" viewBox="0 0 48 48" fill="none" xmlns="http://www.w3.org/2000/svg">
<rect opacity="0.2" x="9" y="27" width="10" height="10" fill="#008475"/>
<rect opacity="0.2" x="29" y="27" width="10" height="10" fill="#008475"/>
<path fill-rule="evenodd" clip-rule="evenodd" d="M34 24.5H33.9494C33.0606 24.5 32.3184 24.5 31.7092 24.5416C31.075 24.5848 30.476 24.678 29.8952 24.9186C29.7604 24.9744 29.6284 25.0354 29.4996 25.1012V22.0002C29.4996 18.6951 31.0556 15.583 33.6998 13.6L36.9 11.2C37.5628 10.7029 37.697 9.76277 37.2 9.10001C36.703 8.43725 35.7628 8.30291 35.1 8.79995L31.8998 11.1999C28.5002 13.7495 26.4996 17.7508 26.4996 22.0002V31C26.4996 31.0274 26.5002 31.0546 26.5016 31.0816C26.5 31.3538 26.5 31.643 26.5 31.9494V32V32.0506C26.5 32.9394 26.5 33.6816 26.5416 34.2908C26.5848 34.925 26.678 35.524 26.9186 36.1048C27.4768 37.4524 28.5476 38.5232 29.8952 39.0814C30.476 39.322 31.075 39.4152 31.7092 39.4584C32.3184 39.5 33.0606 39.5 33.9494 39.5H34H34.0506C34.9394 39.5 35.6816 39.5 36.2908 39.4584C36.925 39.4152 37.524 39.322 38.1048 39.0814C39.4524 38.5232 40.5232 37.4524 41.0814 36.1048C41.322 35.524 41.4152 34.925 41.4584 34.2908C41.5 33.6816 41.5 32.9394 41.5 32.0506V32V31.9494C41.5 31.0606 41.5 30.3184 41.4584 29.7092C41.4152 29.075 41.322 28.476 41.0814 27.8952C40.5232 26.5476 39.4524 25.4768 38.1048 24.9186C37.524 24.678 36.925 24.5848 36.2908 24.5416C35.6816 24.5 34.9394 24.5 34.0506 24.5H34.0504H34ZM31.0432 27.6902C31.1976 27.6264 31.432 27.5674 31.9134 27.5346C32.4084 27.5008 33.0476 27.5 34 27.5C34.9524 27.5 35.5916 27.5008 36.0866 27.5346C36.568 27.5674 36.8024 27.6264 36.9568 27.6902C37.5692 27.944 38.056 28.4308 38.3096 29.0432C38.3736 29.1976 38.4326 29.432 38.4654 29.9134C38.4992 30.4084 38.5 31.0476 38.5 32C38.5 32.9524 38.4992 33.5916 38.4654 34.0866C38.4326 34.568 38.3736 34.8024 38.3096 34.9568C38.056 35.5692 37.5692 36.056 36.9568 36.3096C36.8024 36.3736 36.568 36.4326 36.0866 36.4654C35.5916 36.4992 34.9524 36.5 34 36.5C33.0476 36.5 32.4084 36.4992 31.9134 36.4654C31.432 36.4326 31.1976 36.3736 31.0432 36.3096C30.4308 36.056 29.944 35.5692 29.6902 34.9568C29.6264 34.8024 29.5674 34.568 29.5346 34.0866C29.5008 33.5916 29.5 32.9524 29.5 32C29.5 31.0476 29.5008 30.4084 29.5346 29.9134C29.5674 29.432 29.6264 29.1976 29.6902 29.0432C29.944 28.4308 30.4308 27.944 31.0432 27.6902ZM17.2 9.09997C17.6971 9.76271 17.5627 10.7029 16.9 11.2L13.7 13.6C11.056 15.5829 9.5 18.695 9.5 22V25.101C9.62882 25.0352 9.76066 24.9744 9.89524 24.9186C10.476 24.678 11.0751 24.5848 11.7093 24.5416C12.3185 24.5 13.0606 24.5 13.9495 24.5H13.9495H14H14.0505H14.0505C14.9394 24.5 15.6815 24.5 16.2907 24.5416C16.9249 24.5848 17.524 24.678 18.1048 24.9186C19.4524 25.4768 20.5232 26.5476 21.0814 27.8952C21.322 28.476 21.4152 29.075 21.4584 29.7092C21.5 30.3184 21.5 31.0606 21.5 31.9494V32V32.0506C21.5 32.9394 21.5 33.6816 21.4584 34.2908C21.4152 34.925 21.322 35.524 21.0814 36.1048C20.5232 37.4524 19.4524 38.5232 18.1048 39.0814C17.524 39.322 16.9249 39.4152 16.2907 39.4584C15.6815 39.5 14.9394 39.5 14.0505 39.5H14.0505H14H13.9495H13.9495C13.0606 39.5 12.3185 39.5 11.7093 39.4584C11.0751 39.4152 10.476 39.322 9.89524 39.0814C8.54758 38.5232 7.47688 37.4524 6.91866 36.1048C6.6781 35.524 6.58482 34.925 6.54154 34.2908C6.49998 33.6816 6.49998 32.9394 6.5 32.0506V32V31.9494C6.5 31.6396 6.5 31.3478 6.50174 31.073C6.50058 31.0488 6.5 31.0244 6.5 31V22C6.5 17.7507 8.50062 13.7495 11.9 11.2L15.1 8.79997C15.7627 8.30291 16.7029 8.43723 17.2 9.09997ZM11.0433 27.6902C11.1976 27.6264 11.432 27.5674 11.9135 27.5346C12.4084 27.5008 13.0476 27.5 14 27.5C14.9524 27.5 15.5916 27.5008 16.0865 27.5346C16.568 27.5674 16.8024 27.6264 16.9567 27.6902C17.5693 27.944 18.056 28.4308 18.3097 29.0432C18.3736 29.1976 18.4326 29.432 18.4654 29.9134C18.4992 30.4084 18.5 31.0476 18.5 32C18.5 32.9524 18.4992 33.5916 18.4654 34.0866C18.4326 34.568 18.3736 34.8024 18.3097 34.9568C18.056 35.5692 17.5693 36.056 16.9567 36.3096C16.8024 36.3736 16.568 36.4326 16.0865 36.4654C15.5916 36.4992 14.9524 36.5 14 36.5C13.0476 36.5 12.4084 36.4992 11.9135 36.4654C11.432 36.4326 11.1976 36.3736 11.0433 36.3096C10.4307 36.056 9.94404 35.5692 9.6903 34.9568C9.62638 34.8024 9.56744 34.568 9.53458 34.0866C9.50082 33.5916 9.5 32.9524 9.5 32C9.5 31.0476 9.50082 30.4084 9.53458 29.9134C9.56744 29.432 9.62638 29.1976 9.6903 29.0432C9.94404 28.4308 10.4307 27.944 11.0433 27.6902Z" fill="#008475"/>
</svg>
