<svg width="85" height="38" viewBox="0 0 85 38" fill="none" xmlns="http://www.w3.org/2000/svg">
<path d="M20.616 4.456C20.616 5.56 20.328 6.68 19.752 7.816C19.176 8.952 18.456 10.032 17.592 11.056C16.744 12.064 15.832 12.992 14.856 13.84C13.896 14.688 13.016 15.392 12.216 15.952C12.184 15.968 12.048 16.056 11.808 16.216C11.568 16.376 11.28 16.568 10.944 16.792C10.608 17.016 10.24 17.256 9.84 17.512C9.456 17.768 9.088 18.008 8.736 18.232C8.4 18.456 8.112 18.648 7.872 18.808C7.632 18.952 7.496 19.04 7.464 19.072L7.56 19.312C7.784 19.872 8.016 20.48 8.256 21.136C8.512 21.792 8.64 22.44 8.64 23.08C8.64 23.64 8.504 24.088 8.232 24.424C7.976 24.744 7.64 24.984 7.224 25.144C6.824 25.32 6.384 25.424 5.904 25.456C5.44 25.504 4.992 25.528 4.56 25.528C4.384 25.528 4.192 25.512 3.984 25.48C3.776 25.464 3.584 25.416 3.408 25.336C3.232 25.272 3.08 25.168 2.952 25.024C2.84 24.896 2.784 24.72 2.784 24.496C2.784 24.32 2.88 24.192 3.072 24.112C3.28 24.016 3.448 23.968 3.576 23.968H6.144C6.416 23.968 6.64 23.88 6.816 23.704C6.992 23.512 7.08 23.304 7.08 23.08C7.08 22.984 7.048 22.792 6.984 22.504C6.92 22.2 6.84 21.88 6.744 21.544C6.648 21.192 6.536 20.856 6.408 20.536C6.296 20.216 6.184 19.976 6.072 19.816C5.784 19.992 5.464 20.176 5.112 20.368C4.76 20.56 4.4 20.744 4.032 20.92C3.68 21.096 3.328 21.272 2.976 21.448C2.624 21.608 2.304 21.752 2.016 21.88C1.872 21.928 1.736 21.952 1.608 21.952C1.384 21.952 1.2 21.88 1.056 21.736C0.912 21.592 0.84 21.384 0.84 21.112C0.84 20.872 1.056 20.632 1.488 20.392C1.92 20.152 2.408 19.912 2.952 19.672C3.512 19.432 4.04 19.2 4.536 18.976C5.032 18.736 5.352 18.504 5.496 18.28C5.144 17.432 4.84 16.52 4.584 15.544C4.328 14.552 4.2 13.576 4.2 12.616C4.2 11.016 4.496 9.496 5.088 8.056C5.696 6.616 6.528 5.352 7.584 4.264C8.64 3.16 9.88 2.288 11.304 1.648C12.728 1.008 14.264 0.688 15.912 0.688C16.488 0.688 17.056 0.768 17.616 0.927999C18.192 1.072 18.696 1.304 19.128 1.624C19.576 1.928 19.936 2.32 20.208 2.8C20.48 3.264 20.616 3.816 20.616 4.456ZM19.2 4.576C19.2 4.064 19.088 3.648 18.864 3.328C18.64 3.008 18.352 2.76 18 2.584C17.648 2.408 17.248 2.288 16.8 2.224C16.368 2.16 15.936 2.128 15.504 2.128C14.176 2.128 12.92 2.424 11.736 3.016C10.568 3.592 9.536 4.36 8.64 5.32C7.76 6.264 7.056 7.344 6.528 8.56C6.016 9.776 5.76 11.024 5.76 12.304C5.76 13.248 5.848 14.128 6.024 14.944C6.216 15.744 6.512 16.6 6.912 17.512C7.536 17.176 8.272 16.752 9.12 16.24C9.968 15.712 10.848 15.12 11.76 14.464C12.672 13.792 13.568 13.072 14.448 12.304C15.344 11.536 16.144 10.728 16.848 9.88C17.552 9.032 18.12 8.16 18.552 7.264C18.984 6.368 19.2 5.472 19.2 4.576ZM13.023 13.816C13.023 14.28 12.911 14.664 12.687 14.968C12.463 15.272 12.095 15.424 11.583 15.424C11.391 15.424 11.199 15.376 11.007 15.28C10.831 15.184 10.671 15.056 10.527 14.896C10.383 14.736 10.271 14.56 10.191 14.368C10.111 14.16 10.071 13.952 10.071 13.744C10.071 13.312 10.175 12.96 10.383 12.688C10.607 12.416 10.951 12.28 11.415 12.28C11.927 12.28 12.319 12.408 12.591 12.664C12.879 12.92 13.023 13.304 13.023 13.816ZM16.623 23.8C16.623 24.072 16.527 24.32 16.335 24.544C16.159 24.768 15.935 24.96 15.663 25.12C15.407 25.28 15.127 25.4 14.823 25.48C14.535 25.56 14.287 25.6 14.079 25.6C13.311 25.6 12.703 25.4 12.255 25C11.807 24.6 11.463 24.112 11.223 23.536C10.999 22.944 10.855 22.312 10.791 21.64C10.727 20.968 10.695 20.36 10.695 19.816C10.695 19.736 10.695 19.632 10.695 19.504C10.711 19.376 10.719 19.248 10.719 19.12C10.719 18.976 10.719 18.848 10.719 18.736C10.735 18.608 10.743 18.528 10.743 18.496C10.759 18.288 10.831 18.152 10.959 18.088C11.103 18.008 11.263 17.968 11.439 17.968C11.519 17.968 11.615 17.992 11.727 18.04C11.855 18.072 11.927 18.192 11.943 18.4C11.959 18.608 11.967 18.896 11.967 19.264C11.983 19.632 12.007 20.032 12.039 20.464C12.087 20.896 12.151 21.336 12.231 21.784C12.311 22.232 12.423 22.64 12.567 23.008C12.727 23.376 12.927 23.68 13.167 23.92C13.423 24.144 13.727 24.256 14.079 24.256C14.271 24.256 14.447 24.216 14.607 24.136C14.783 24.04 14.951 23.944 15.111 23.848C15.271 23.752 15.423 23.664 15.567 23.584C15.727 23.488 15.903 23.44 16.095 23.44C16.271 23.44 16.399 23.464 16.479 23.512C16.575 23.544 16.623 23.64 16.623 23.8ZM29.0004 26.872C29.0004 27.224 28.8724 27.488 28.6164 27.664C28.3604 27.856 28.0644 28.008 27.7284 28.12C27.3924 28.232 27.0484 28.312 26.6964 28.36C26.3604 28.424 26.1044 28.504 25.9284 28.6C25.9284 29.56 25.7604 30.544 25.4244 31.552C25.0884 32.576 24.5924 33.504 23.9364 34.336C23.2964 35.184 22.5044 35.872 21.5604 36.4C20.6164 36.944 19.5444 37.216 18.3444 37.216C17.9924 37.216 17.5924 37.152 17.1444 37.024C16.6964 36.912 16.2804 36.736 15.8964 36.496C15.5124 36.272 15.1844 35.984 14.9124 35.632C14.6564 35.296 14.5284 34.912 14.5284 34.48C14.5284 33.872 14.7204 33.296 15.1044 32.752C15.5044 32.208 16.0084 31.704 16.6164 31.24C17.2404 30.792 17.9284 30.368 18.6804 29.968C19.4484 29.584 20.2004 29.232 20.9364 28.912C21.6884 28.608 22.3924 28.328 23.0484 28.072C23.7044 27.832 24.2244 27.616 24.6084 27.424C24.6404 27.088 24.6644 26.736 24.6804 26.368C24.7124 26 24.7284 25.632 24.7284 25.264C24.7284 24.768 24.7124 24.28 24.6804 23.8C24.6484 23.32 24.6164 22.848 24.5844 22.384C24.4404 22.384 24.1524 22.544 23.7204 22.864C23.2884 23.184 22.7844 23.536 22.2084 23.92C21.6324 24.304 21.0164 24.656 20.3604 24.976C19.7044 25.296 19.0724 25.456 18.4644 25.456C18.0804 25.456 17.7124 25.424 17.3604 25.36C17.0244 25.296 16.7284 25.176 16.4724 25C16.2164 24.84 16.0084 24.616 15.8484 24.328C15.7044 24.04 15.6324 23.672 15.6324 23.224C15.6324 22.36 15.9044 21.584 16.4484 20.896C17.0084 20.192 17.6964 19.6 18.5124 19.12C19.3444 18.64 20.2484 18.272 21.2244 18.016C22.2164 17.76 23.1444 17.632 24.0084 17.632C24.2804 17.632 24.5284 17.672 24.7524 17.752C24.9764 17.832 25.0884 18.024 25.0884 18.328C25.0884 18.52 24.9604 18.68 24.7044 18.808C24.3204 18.824 23.8644 18.872 23.3364 18.952C22.8084 19.032 22.2564 19.16 21.6804 19.336C21.1204 19.496 20.5604 19.696 20.0004 19.936C19.4564 20.176 18.9604 20.464 18.5124 20.8C18.0804 21.136 17.7284 21.512 17.4564 21.928C17.1844 22.344 17.0484 22.808 17.0484 23.32C17.0484 23.512 17.0884 23.656 17.1684 23.752C17.2644 23.848 17.3764 23.92 17.5044 23.968C17.6324 24.016 17.7764 24.048 17.9364 24.064C18.1124 24.064 18.2804 24.064 18.4404 24.064C19.0644 24.064 19.6804 23.936 20.2884 23.68C20.8964 23.408 21.4804 23.072 22.0404 22.672C22.6004 22.256 23.1204 21.816 23.6004 21.352C24.0964 20.872 24.5204 20.416 24.8724 19.984C24.9844 19.856 25.0964 19.792 25.2084 19.792C25.4004 19.792 25.5364 19.88 25.6164 20.056C25.7124 20.232 25.7764 20.44 25.8084 20.68C25.8564 20.92 25.8804 21.168 25.8804 21.424C25.8804 21.664 25.8804 21.848 25.8804 21.976C25.8964 22.152 25.9124 22.472 25.9284 22.936C25.9444 23.4 25.9604 23.888 25.9764 24.4C25.9924 24.912 26.0084 25.4 26.0244 25.864C26.0404 26.344 26.0484 26.68 26.0484 26.872C26.4644 26.776 26.8564 26.656 27.2244 26.512C27.6084 26.368 28.0084 26.296 28.4244 26.296C28.8084 26.296 29.0004 26.488 29.0004 26.872ZM24.5124 28.984C24.2084 29.048 23.8404 29.16 23.4084 29.32C22.9924 29.48 22.5764 29.656 22.1604 29.848C21.7444 30.04 21.3524 30.216 20.9844 30.376C20.6164 30.552 20.3364 30.688 20.1444 30.784C19.7444 30.976 19.3044 31.192 18.8244 31.432C18.3444 31.688 17.8964 31.976 17.4804 32.296C17.0804 32.616 16.7444 32.968 16.4724 33.352C16.2004 33.752 16.0644 34.192 16.0644 34.672C16.0644 34.944 16.1524 35.16 16.3284 35.32C16.5044 35.48 16.7124 35.6 16.9524 35.68C17.2084 35.76 17.4724 35.808 17.7444 35.824C18.0164 35.856 18.2484 35.872 18.4404 35.872C19.2884 35.872 20.0804 35.664 20.8164 35.248C21.5524 34.832 22.1924 34.296 22.7364 33.64C23.2964 32.984 23.7284 32.24 24.0324 31.408C24.3524 30.592 24.5124 29.784 24.5124 28.984ZM38.4604 23.968C38.4604 24.304 38.3564 24.592 38.1484 24.832C37.9564 25.072 37.7164 25.264 37.4284 25.408C37.1404 25.552 36.8364 25.656 36.5164 25.72C36.2124 25.8 35.9404 25.84 35.7004 25.84C35.1084 25.84 34.6204 25.72 34.2364 25.48C33.8524 25.24 33.5324 24.936 33.2764 24.568C33.0364 24.2 32.8524 23.808 32.7244 23.392C32.6124 22.96 32.5244 22.56 32.4604 22.192C32.3964 21.824 32.3484 21.52 32.3164 21.28C32.3004 21.04 32.2684 20.92 32.2204 20.92C32.1084 20.92 31.9644 21.032 31.7884 21.256C31.6124 21.48 31.4204 21.76 31.2124 22.096C31.0044 22.416 30.7804 22.768 30.5404 23.152C30.3164 23.536 30.0924 23.896 29.8684 24.232C29.6444 24.552 29.4284 24.824 29.2204 25.048C29.0124 25.272 28.8284 25.384 28.6684 25.384C28.4604 25.384 28.2844 25.304 28.1404 25.144C27.9964 25 27.8764 24.816 27.7804 24.592C27.6844 24.368 27.6124 24.136 27.5644 23.896C27.5324 23.64 27.5164 23.424 27.5164 23.248V18.16C27.5164 18.064 27.5484 17.96 27.6124 17.848C27.6924 17.736 27.8204 17.68 27.9964 17.68C28.1884 17.68 28.3084 17.736 28.3564 17.848C28.4204 17.96 28.4684 18.064 28.5004 18.16C28.5164 18.24 28.5324 18.384 28.5484 18.592C28.5804 18.8 28.6044 19.016 28.6204 19.24C28.6364 19.464 28.6444 19.68 28.6444 19.888C28.6604 20.096 28.6684 20.24 28.6684 20.32C28.6844 20.432 28.6924 20.64 28.6924 20.944C28.6924 21.248 28.7004 21.56 28.7164 21.88C28.7324 22.2 28.7644 22.48 28.8124 22.72C28.8764 22.96 28.9644 23.08 29.0764 23.08C29.2044 23.08 29.3564 22.944 29.5324 22.672C29.7244 22.4 29.9324 22.056 30.1564 21.64C30.3964 21.224 30.6444 20.784 30.9004 20.32C31.1564 19.84 31.4124 19.392 31.6684 18.976C31.9404 18.56 32.2044 18.216 32.4604 17.944C32.7164 17.672 32.9564 17.536 33.1804 17.536C33.4524 17.536 33.6364 17.696 33.7324 18.016C33.7964 18.208 33.8284 18.424 33.8284 18.664C33.8284 18.792 33.8204 18.944 33.8044 19.12C33.7884 19.28 33.7724 19.488 33.7564 19.744C33.7404 20 33.7244 20.32 33.7084 20.704C33.7084 21.072 33.7164 21.536 33.7324 22.096C33.7484 22.704 33.9484 23.224 34.3324 23.656C34.7324 24.088 35.2444 24.304 35.8684 24.304C36.2524 24.304 36.5724 24.264 36.8284 24.184C37.1004 24.104 37.4604 23.936 37.9084 23.68C38.0204 23.616 38.1164 23.584 38.1964 23.584C38.2924 23.584 38.3564 23.624 38.3884 23.704C38.4364 23.784 38.4604 23.872 38.4604 23.968ZM49.8688 24.4C49.8688 24.64 49.8128 24.824 49.7008 24.952C49.6048 25.064 49.4768 25.152 49.3168 25.216C49.1728 25.28 49.0048 25.312 48.8128 25.312C48.6368 25.328 48.4688 25.336 48.3088 25.336C48.0048 25.336 47.7568 25.256 47.5648 25.096C47.3888 24.936 47.2448 24.736 47.1328 24.496C47.0368 24.256 46.9728 23.992 46.9408 23.704C46.9088 23.416 46.8928 23.136 46.8928 22.864C46.8928 22.624 46.9008 22.408 46.9168 22.216C46.9328 22.008 46.9488 21.856 46.9648 21.76C46.8528 21.84 46.7008 21.96 46.5088 22.12C46.3328 22.264 46.1568 22.408 45.9808 22.552C45.8208 22.696 45.6768 22.824 45.5488 22.936C45.4368 23.048 45.3808 23.104 45.3808 23.104C44.6128 23.776 43.7488 24.344 42.7888 24.808C41.8448 25.256 40.8448 25.48 39.7888 25.48C38.6368 25.48 37.8128 25.264 37.3168 24.832C36.8368 24.4 36.5968 23.872 36.5968 23.248C36.5968 22.896 36.6608 22.536 36.7888 22.168C36.9328 21.784 37.1168 21.416 37.3408 21.064C37.5648 20.696 37.8288 20.352 38.1328 20.032C38.4368 19.712 38.7648 19.432 39.1168 19.192C39.4848 18.952 39.9168 18.728 40.4128 18.52C40.9248 18.312 41.4768 18.128 42.0688 17.968C42.6608 17.808 43.2768 17.688 43.9168 17.608C44.5728 17.512 45.2208 17.464 45.8608 17.464H46.3888C46.5328 17.464 46.6608 17.528 46.7728 17.656C46.9008 17.784 46.9648 17.92 46.9648 18.064C46.9648 18.192 46.9168 18.312 46.8208 18.424C46.7408 18.52 46.6608 18.584 46.5808 18.616C46.2768 18.632 45.8608 18.68 45.3328 18.76C44.8208 18.84 44.2608 18.96 43.6528 19.12C43.0448 19.264 42.4208 19.448 41.7808 19.672C41.1568 19.896 40.5888 20.16 40.0768 20.464C39.5648 20.752 39.1488 21.088 38.8288 21.472C38.5088 21.856 38.3488 22.28 38.3488 22.744C38.3488 22.984 38.3968 23.176 38.4928 23.32C38.6048 23.448 38.7408 23.552 38.9008 23.632C39.0608 23.696 39.2368 23.744 39.4288 23.776C39.6368 23.792 39.8368 23.8 40.0288 23.8C40.6848 23.8 41.3328 23.672 41.9728 23.416C42.6288 23.144 43.2528 22.808 43.8448 22.408C44.4528 22.008 45.0208 21.568 45.5488 21.088C46.0928 20.592 46.5808 20.104 47.0128 19.624L47.5648 19.024C47.6288 18.944 47.7088 18.872 47.8048 18.808C47.9168 18.744 48.0208 18.712 48.1168 18.712C48.1968 18.712 48.2688 18.752 48.3328 18.832C48.3968 18.896 48.4288 19.024 48.4288 19.216C48.3328 20.24 48.2848 21.28 48.2848 22.336C48.2848 22.544 48.2848 22.744 48.2848 22.936C48.2848 23.128 48.2928 23.328 48.3088 23.536C48.3248 23.632 48.3488 23.72 48.3808 23.8C48.4128 23.88 48.4528 23.952 48.5008 24.016C48.5648 24.064 48.6448 24.088 48.7408 24.088L49.5088 23.92C49.6048 23.92 49.6848 23.968 49.7488 24.064C49.8288 24.16 49.8688 24.272 49.8688 24.4ZM61.7256 17.32C61.7256 17.432 61.7096 17.536 61.6776 17.632C61.6616 17.712 61.6056 17.784 61.5096 17.848C61.4136 17.912 61.2616 17.976 61.0536 18.04C60.8456 18.104 60.5496 18.184 60.1656 18.28C59.6216 18.312 59.0216 18.384 58.3656 18.496C57.7256 18.592 57.0936 18.696 56.4696 18.808C55.8456 18.92 55.2536 19.024 54.6936 19.12C54.1496 19.216 53.6936 19.28 53.3256 19.312C53.3096 19.312 53.3016 19.456 53.3016 19.744C53.3016 20.048 53.3256 20.456 53.3736 20.968C53.4216 21.464 53.5176 21.952 53.6616 22.432C53.8056 22.912 54.0136 23.328 54.2856 23.68C54.5736 24.032 54.9496 24.208 55.4136 24.208C55.7656 24.208 56.1416 24.152 56.5416 24.04C56.9256 24.04 57.1176 24.136 57.1176 24.328C57.1176 24.424 57.0536 24.536 56.9256 24.664C56.7976 24.776 56.6216 24.888 56.3976 25C56.1736 25.112 55.8936 25.2 55.5576 25.264C55.2376 25.344 54.8856 25.384 54.5016 25.384C54.1016 25.384 53.7496 25.264 53.4456 25.024C53.1576 24.784 52.9096 24.48 52.7016 24.112C52.5096 23.744 52.3496 23.336 52.2216 22.888C52.0936 22.44 51.9896 22.008 51.9096 21.592C51.8456 21.176 51.7896 20.8 51.7416 20.464C51.7096 20.128 51.6776 19.888 51.6456 19.744H51.6216C51.5576 19.744 51.4296 19.76 51.2376 19.792C51.0616 19.808 50.8536 19.832 50.6136 19.864C50.3736 19.88 50.1336 19.904 49.8936 19.936C49.6536 19.952 49.4456 19.96 49.2696 19.96C48.9656 19.96 48.7736 19.936 48.6936 19.888C48.6136 19.84 48.5736 19.664 48.5736 19.36C48.5736 19.12 48.7016 18.944 48.9576 18.832C49.1976 18.72 49.4776 18.64 49.7976 18.592C50.1336 18.528 50.4696 18.48 50.8056 18.448C51.1416 18.416 51.3896 18.352 51.5496 18.256L51.5256 18.088C51.4936 17.848 51.4696 17.64 51.4536 17.464C51.4376 17.272 51.4216 17.08 51.4056 16.888C51.4056 16.696 51.4056 16.488 51.4056 16.264C51.4056 16.04 51.4056 15.784 51.4056 15.496C51.4056 14.568 51.4376 13.656 51.5016 12.76C51.5656 11.864 51.6696 11.008 51.8136 10.192C51.9736 9.376 52.1736 8.616 52.4136 7.912C52.6536 7.192 52.9496 6.552 53.3016 5.992C53.3656 5.896 53.4696 5.808 53.6136 5.728C53.7576 5.632 53.8936 5.584 54.0216 5.584C54.3096 5.584 54.5256 5.736 54.6696 6.04C54.8296 6.328 54.9416 6.68 55.0056 7.096C55.0856 7.496 55.1336 7.92 55.1496 8.368C55.1656 8.816 55.1736 9.192 55.1736 9.496C55.1736 10.44 55.1256 11.304 55.0296 12.088C54.9336 12.872 54.8136 13.6 54.6696 14.272C54.5256 14.928 54.3656 15.544 54.1896 16.12C54.0136 16.696 53.8456 17.248 53.6856 17.776C54.4376 17.616 55.1496 17.48 55.8216 17.368C56.5096 17.256 57.1656 17.152 57.7896 17.056C58.4136 16.96 59.0136 16.88 59.5896 16.816C60.1816 16.736 60.7736 16.656 61.3656 16.576C61.5416 16.576 61.6456 16.656 61.6776 16.816C61.7096 16.96 61.7256 17.128 61.7256 17.32ZM54.1656 10.792C54.1656 10.424 54.1416 10.136 54.0936 9.928C54.0616 9.72 53.9896 9.616 53.8776 9.616C53.6536 9.616 53.4616 9.768 53.3016 10.072C53.1576 10.376 53.0376 10.768 52.9416 11.248C52.8456 11.728 52.7736 12.272 52.7256 12.88C52.6776 13.488 52.6536 14.104 52.6536 14.728C52.6536 15.272 52.6696 15.768 52.7016 16.216C52.7336 16.648 52.7736 16.976 52.8216 17.2C53.0296 16.736 53.2136 16.224 53.3736 15.664C53.5336 15.104 53.6696 14.536 53.7816 13.96C53.9096 13.384 54.0056 12.824 54.0696 12.28C54.1336 11.736 54.1656 11.24 54.1656 10.792ZM68.7099 23.464C68.7099 23.768 68.6059 24.04 68.3979 24.28C68.2059 24.52 67.9659 24.728 67.6779 24.904C67.4059 25.064 67.1099 25.192 66.7899 25.288C66.4699 25.384 66.1899 25.432 65.9499 25.432C65.2459 25.432 64.6939 25.264 64.2939 24.928C63.9099 24.576 63.6219 24.176 63.4299 23.728C63.2379 23.28 63.1099 22.848 63.0459 22.432C62.9979 22.016 62.9579 21.736 62.9259 21.592C62.6699 21.928 62.3899 22.312 62.0859 22.744C61.7979 23.176 61.4779 23.584 61.1259 23.968C60.7739 24.336 60.3899 24.656 59.9739 24.928C59.5579 25.184 59.0939 25.312 58.5819 25.312C58.1499 25.312 57.8059 25.208 57.5499 25C57.3099 24.792 57.1259 24.528 56.9979 24.208C56.8859 23.872 56.8139 23.512 56.7819 23.128C56.7659 22.744 56.7579 22.376 56.7579 22.024C56.7579 21.8 56.7659 21.576 56.7819 21.352C56.8139 21.128 56.8379 20.888 56.8539 20.632C56.8859 20.376 56.9099 20.096 56.9259 19.792C56.9579 19.488 56.9739 19.144 56.9739 18.76C56.9739 18.152 57.0699 17.72 57.2619 17.464C57.4539 17.192 57.7339 17.056 58.1019 17.056C58.3099 17.056 58.4299 17.128 58.4619 17.272C58.5099 17.4 58.5339 17.544 58.5339 17.704C58.4539 18.424 58.3579 19.144 58.2459 19.864C58.1499 20.584 58.1019 21.304 58.1019 22.024C58.1019 22.472 58.1179 22.824 58.1499 23.08C58.1819 23.32 58.2219 23.504 58.2699 23.632C58.3179 23.76 58.3739 23.84 58.4379 23.872C58.5179 23.904 58.5979 23.92 58.6779 23.92C59.1419 23.92 59.5499 23.784 59.9019 23.512C60.2539 23.224 60.5659 22.864 60.8379 22.432C61.1259 22 61.3899 21.544 61.6299 21.064C61.8699 20.568 62.1019 20.104 62.3259 19.672C62.5659 19.24 62.8139 18.888 63.0699 18.616C63.3259 18.328 63.6059 18.184 63.9099 18.184C64.0379 18.184 64.1499 18.216 64.2459 18.28C64.3579 18.344 64.4059 18.432 64.3899 18.544C64.3579 19.008 64.3179 19.392 64.2699 19.696C64.2379 19.984 64.2219 20.264 64.2219 20.536C64.2219 20.904 64.2539 21.288 64.3179 21.688C64.3819 22.088 64.4859 22.456 64.6299 22.792C64.7739 23.112 64.9659 23.384 65.2059 23.608C65.4459 23.816 65.7339 23.92 66.0699 23.92C66.2779 23.92 66.4619 23.88 66.6219 23.8C66.7979 23.704 66.9659 23.608 67.1259 23.512C67.2859 23.4 67.4459 23.304 67.6059 23.224C67.7659 23.128 67.9499 23.08 68.1579 23.08C68.5259 23.08 68.7099 23.208 68.7099 23.464ZM77.1045 24.352C77.1045 24.592 77.0085 24.792 76.8165 24.952C76.6245 25.096 76.3925 25.216 76.1205 25.312C75.8485 25.408 75.5605 25.472 75.2565 25.504C74.9685 25.552 74.7205 25.576 74.5125 25.576C73.9845 25.576 73.5205 25.424 73.1205 25.12C72.7365 24.816 72.5445 24.328 72.5445 23.656C72.5445 23.288 72.5765 22.936 72.6405 22.6C72.7045 22.248 72.7765 21.904 72.8565 21.568C72.9365 21.216 73.0085 20.864 73.0725 20.512C73.1525 20.16 73.1925 19.784 73.1925 19.384C73.1925 19.096 73.0725 18.912 72.8325 18.832C72.5925 18.736 72.3205 18.688 72.0165 18.688H70.7685C70.5605 18.688 70.3925 18.824 70.2645 19.096C70.1365 19.352 70.0165 19.688 69.9045 20.104C69.7925 20.504 69.6805 20.936 69.5685 21.4C69.4565 21.864 69.3205 22.304 69.1605 22.72C69.0005 23.12 68.8005 23.456 68.5605 23.728C68.3365 23.984 68.0485 24.112 67.6965 24.112C67.5685 24.096 67.4565 24.048 67.3605 23.968C67.2645 23.872 67.2165 23.76 67.2165 23.632C67.2165 23.568 67.2485 23.488 67.3125 23.392C67.5365 23.056 67.7365 22.608 67.9125 22.048C68.0885 21.488 68.2565 20.888 68.4165 20.248C68.5765 19.608 68.7365 18.968 68.8965 18.328C69.0725 17.672 69.2565 17.08 69.4485 16.552C69.6405 16.024 69.8565 15.592 70.0965 15.256C70.3365 14.92 70.6085 14.752 70.9125 14.752C71.1685 14.752 71.3845 14.8 71.5605 14.896C71.7525 14.992 71.8805 15.168 71.9445 15.424C71.9765 15.488 71.9925 15.552 71.9925 15.616C71.9925 15.664 71.9925 15.712 71.9925 15.76C71.9925 15.872 71.9365 16 71.8245 16.144C71.7285 16.272 71.6165 16.408 71.4885 16.552C71.3605 16.696 71.2405 16.84 71.1285 16.984C71.0325 17.112 70.9845 17.24 70.9845 17.368C72.3125 17.368 73.2325 17.544 73.7445 17.896C74.2725 18.248 74.5365 18.752 74.5365 19.408C74.5365 19.824 74.5125 20.2 74.4645 20.536C74.4165 20.872 74.3605 21.2 74.2965 21.52C74.2325 21.84 74.1765 22.16 74.1285 22.48C74.0805 22.8 74.0565 23.152 74.0565 23.536C74.0565 23.616 74.0645 23.752 74.0805 23.944C74.1125 24.136 74.2005 24.232 74.3445 24.232C74.4725 24.232 74.6245 24.208 74.8005 24.16C74.9925 24.112 75.1845 24.056 75.3765 23.992C75.5845 23.928 75.7845 23.872 75.9765 23.824C76.1845 23.776 76.3605 23.752 76.5045 23.752C76.9045 23.752 77.1045 23.952 77.1045 24.352ZM84.8483 22.84C84.8483 23.24 84.6803 23.608 84.3443 23.944C84.0083 24.28 83.6003 24.568 83.1203 24.808C82.6563 25.048 82.1763 25.232 81.6803 25.36C81.1843 25.504 80.7763 25.576 80.4563 25.576C79.8963 25.576 79.3603 25.48 78.8483 25.288C78.3523 25.096 77.9123 24.832 77.5283 24.496C77.1603 24.16 76.8643 23.768 76.6403 23.32C76.4163 22.856 76.3043 22.36 76.3043 21.832C76.3043 21.256 76.4163 20.672 76.6403 20.08C76.8643 19.472 77.1763 18.928 77.5763 18.448C77.9923 17.952 78.4963 17.552 79.0883 17.248C79.6803 16.928 80.3363 16.768 81.0563 16.768C81.7283 16.768 82.2403 16.928 82.5923 17.248C82.9603 17.552 83.1443 18.032 83.1443 18.688C83.1443 19.456 82.9603 20.096 82.5923 20.608C82.2243 21.104 81.7763 21.52 81.2483 21.856C80.7203 22.176 80.1603 22.424 79.5683 22.6C78.9763 22.76 78.4643 22.888 78.0323 22.984C78.1763 23.192 78.3523 23.376 78.5603 23.536C78.7683 23.68 78.9843 23.8 79.2083 23.896C79.4483 23.992 79.6883 24.064 79.9283 24.112C80.1843 24.16 80.4163 24.184 80.6243 24.184C81.0083 24.184 81.3763 24.088 81.7283 23.896C82.0803 23.688 82.4083 23.464 82.7122 23.224C83.0323 22.968 83.3283 22.744 83.6003 22.552C83.8723 22.344 84.1283 22.24 84.3683 22.24C84.5443 22.24 84.6643 22.296 84.7283 22.408C84.8083 22.52 84.8483 22.664 84.8483 22.84ZM81.8963 18.688C81.8963 18.448 81.8403 18.264 81.7283 18.136C81.6163 17.992 81.4243 17.92 81.1523 17.92C80.6723 17.92 80.2243 18.032 79.8083 18.256C79.3923 18.48 79.0323 18.776 78.7283 19.144C78.4243 19.496 78.1843 19.896 78.0083 20.344C77.8323 20.792 77.7443 21.24 77.7443 21.688C78.1443 21.688 78.5843 21.624 79.0643 21.496C79.5443 21.352 79.9923 21.152 80.4083 20.896C80.8403 20.64 81.1923 20.328 81.4643 19.96C81.7523 19.592 81.8963 19.168 81.8963 18.688Z" fill="#008475"/>
</svg>
