<svg width="37" height="37" viewBox="0 0 37 37" fill="none" xmlns="http://www.w3.org/2000/svg">
<path fill-rule="evenodd" clip-rule="evenodd" d="M29.1855 29.1855C23.165 35.2061 13.4037 35.2061 7.38307 29.1855C1.36253 23.1649 1.36249 13.4036 7.38307 7.38303C13.4036 1.36249 23.165 1.36249 29.1855 7.38303C35.2061 13.4036 35.2061 23.1649 29.1855 29.1855ZM5.61531 30.9533C12.6122 37.9501 23.9564 37.9501 30.9533 30.9533C37.9502 23.9563 37.9502 12.6122 30.9533 5.61527C23.9564 -1.38167 12.6122 -1.38167 5.61531 5.61527C-1.38159 12.6122 -1.38163 23.9563 5.61531 30.9533ZM11.2132 19.5342C10.5228 19.5342 9.96328 18.9747 9.96327 18.2843C9.96326 17.5939 10.5229 17.0343 11.2133 17.0343L22.3376 17.0342L19.1682 13.8648C18.68 13.3767 18.68 12.5852 19.1682 12.0971C19.6563 11.6089 20.4478 11.6089 20.936 12.0971L26.2393 17.4004C26.7274 17.8885 26.7274 18.68 26.2393 19.1681L20.936 24.4714C20.4478 24.9596 19.6563 24.9596 19.1682 24.4714C18.68 23.9833 18.68 23.1918 19.1682 22.7037L22.3376 19.5343L11.2132 19.5342Z" fill="white"/>
</svg>
