<svg width="37" height="37" viewBox="0 0 37 37" fill="none" xmlns="http://www.w3.org/2000/svg">
<path fill-rule="evenodd" clip-rule="evenodd" d="M7.75038 7.38305C13.771 1.36247 23.5323 1.36247 29.5528 7.38305C35.5734 13.4036 35.5734 23.1649 29.5528 29.1855C23.5323 35.2061 13.7709 35.2061 7.75038 29.1855C1.7298 23.1649 1.72984 13.4036 7.75038 7.38305ZM31.3206 5.61528C24.3237 -1.38161 12.9795 -1.38161 5.98262 5.61528C-1.01432 12.6122 -1.01428 23.9564 5.98262 30.9533C12.9796 37.9502 24.3237 37.9502 31.3206 30.9533C38.3175 23.9564 38.3175 12.6122 31.3206 5.61528ZM25.7227 17.0343C26.4131 17.0343 26.9726 17.5939 26.9726 18.2842C26.9727 18.9746 26.413 19.5343 25.7226 19.5342L14.5984 19.5343L17.7677 22.7037C18.2559 23.1918 18.2559 23.9833 17.7677 24.4715C17.2796 24.9596 16.4881 24.9596 16 24.4715L10.6967 19.1682C10.2085 18.68 10.2085 17.8885 10.6967 17.4004L16 12.0971C16.4881 11.609 17.2796 11.6089 17.7677 12.0971C18.2559 12.5852 18.2559 13.3767 17.7677 13.8649L14.5984 17.0342L25.7227 17.0343Z" fill="white"/>
</svg>
