<svg width="46" height="17" viewBox="0 0 46 17" fill="none" xmlns="http://www.w3.org/2000/svg">
<path d="M0.392 0.42V16.5H6.752C12.056 16.5 15.56 13.236 15.56 8.46C15.56 3.684 12.056 0.42 6.752 0.42H0.392ZM4.352 13.068V3.852H6.608C9.608 3.852 11.576 5.676 11.576 8.46C11.576 11.244 9.608 13.068 6.608 13.068H4.352Z" fill="#008475"/>
<path d="M21.7426 3.9H30.2146V0.42H17.7826V16.5H21.7426V10.74H29.2786V7.284H21.7426V3.9Z" fill="#F46036"/>
<path d="M32.1264 0.42V16.5H36.0864V11.58H39.8784C43.5984 11.58 45.9504 9.348 45.9504 5.964C45.9504 2.652 43.6704 0.42 40.0464 0.42H32.1264ZM36.0864 8.268V3.804H39.5904C41.1264 3.804 42.0624 4.716 42.0624 6.012C42.0624 7.38 41.1264 8.268 39.5904 8.268H36.0864Z" fill="#C5D86D"/>
</svg>
